<svg width="29" height="26" viewBox="0 0 29 26" fill="none" xmlns="http://www.w3.org/2000/svg">
<path d="M27.8407 17.9344H9.23135L10.1657 16.0312L25.6907 16.0031C26.2157 16.0031 26.6657 15.6281 26.7595 15.1094L28.9095 3.075C28.9657 2.75937 28.8813 2.43438 28.6751 2.1875C28.5732 2.066 28.446 1.96813 28.3025 1.90068C28.1589 1.83323 28.0024 1.79781 27.8438 1.79688L8.09385 1.73125L7.9251 0.9375C7.81885 0.43125 7.3626 0.0625 6.84385 0.0625H2.01572C1.72316 0.0625 1.44257 0.178722 1.2357 0.385598C1.02882 0.592474 0.912598 0.873058 0.912598 1.16563C0.912598 1.45819 1.02882 1.73878 1.2357 1.94565C1.44257 2.15253 1.72316 2.26875 2.01572 2.26875H5.9501L6.6876 5.775L8.50322 14.5656L6.16572 18.3813C6.04433 18.5451 5.97122 18.7396 5.95465 18.9429C5.93808 19.1461 5.97872 19.3499 6.07197 19.5312C6.25947 19.9031 6.6376 20.1375 7.05635 20.1375H9.01885C8.60047 20.6932 8.37449 21.37 8.3751 22.0656C8.3751 23.8344 9.8126 25.2719 11.5813 25.2719C13.3501 25.2719 14.7876 23.8344 14.7876 22.0656C14.7876 21.3687 14.5563 20.6906 14.1438 20.1375H19.1782C18.7598 20.6932 18.5339 21.37 18.5345 22.0656C18.5345 23.8344 19.972 25.2719 21.7407 25.2719C23.5095 25.2719 24.947 23.8344 24.947 22.0656C24.947 21.3687 24.7157 20.6906 24.3032 20.1375H27.8438C28.4501 20.1375 28.947 19.6437 28.947 19.0344C28.9452 18.7421 28.8278 18.4624 28.6206 18.2564C28.4133 18.0503 28.133 17.9345 27.8407 17.9344ZM8.55322 3.90625L26.547 3.96562L24.7845 13.8344L10.6501 13.8594L8.55322 3.90625ZM11.5813 23.0531C11.0376 23.0531 10.5938 22.6094 10.5938 22.0656C10.5938 21.5219 11.0376 21.0781 11.5813 21.0781C12.1251 21.0781 12.5688 21.5219 12.5688 22.0656C12.5688 22.3275 12.4648 22.5787 12.2796 22.7639C12.0944 22.9491 11.8432 23.0531 11.5813 23.0531ZM21.7407 23.0531C21.197 23.0531 20.7532 22.6094 20.7532 22.0656C20.7532 21.5219 21.197 21.0781 21.7407 21.0781C22.2845 21.0781 22.7282 21.5219 22.7282 22.0656C22.7282 22.3275 22.6242 22.5787 22.439 22.7639C22.2538 22.9491 22.0026 23.0531 21.7407 23.0531Z" fill="#F1F1F1"/>
</svg>
