<svg width="32" height="32" viewBox="0 0 32 32" fill="none" xmlns="http://www.w3.org/2000/svg">
<path d="M10.5714 4.28566H10.2856C10.4428 4.28566 10.5714 4.15709 10.5714 3.99995V4.28566H21.4285V3.99995C21.4285 4.15709 21.5571 4.28566 21.7142 4.28566H21.4285V6.85709H23.9999V3.99995C23.9999 2.73923 22.9749 1.71423 21.7142 1.71423H10.2856C9.02493 1.71423 7.99993 2.73923 7.99993 3.99995V6.85709H10.5714V4.28566ZM28.5714 6.85709H3.4285C2.79636 6.85709 2.28564 7.36781 2.28564 7.99995V9.14281C2.28564 9.29995 2.41422 9.42852 2.57136 9.42852H4.7285L5.61064 28.1071C5.66779 29.3249 6.67493 30.2857 7.89279 30.2857H24.1071C25.3285 30.2857 26.3321 29.3285 26.3892 28.1071L27.2714 9.42852H29.4285C29.5856 9.42852 29.7142 9.29995 29.7142 9.14281V7.99995C29.7142 7.36781 29.2035 6.85709 28.5714 6.85709ZM23.8321 27.7142H8.16779L7.3035 9.42852H24.6964L23.8321 27.7142Z" fill="#ED351B"/>
</svg>
