<svg width="64" height="59" viewBox="0 0 64 59" fill="none" xmlns="http://www.w3.org/2000/svg">
<path d="M3 27.0593L8.54751 36.6679C10.8452 35.3413 15.1844 35.6212 17.1183 39.9356C18.6654 43.3871 16.069 46.158 14.5774 47.112L19.944 56.4073L61.616 32.3479L56.2494 23.0527C56.0685 22.7394 49.3358 25.791 47.6226 20.6529C46.252 16.5424 48.7828 13.5773 50.2195 12.6086L44.672 3.00001L3 27.0593Z" stroke="#F1F1F1" stroke-width="3"/>
<line x1="13.8849" y1="20.7749" x2="30.7686" y2="50.0184" stroke="#F1F1F1" stroke-width="1.5" stroke-dasharray="2 2"/>
<path d="M24.2735 29.174C24.8376 25.9704 27.4655 20.424 33.4643 23.8677C39.463 27.3114 41.9517 21.8454 42.4462 18.682" stroke="#F1F1F1" stroke-width="3"/>
<path d="M29.7007 38.5737C30.2648 35.37 32.8928 29.8237 38.8915 33.2674C44.8903 36.711 47.3789 31.2451 47.8734 28.0816" stroke="#F1F1F1" stroke-width="3"/>
</svg>
