<svg width="30" height="30" viewBox="0 0 30 30" fill="none" xmlns="http://www.w3.org/2000/svg">
<path d="M28.1428 0.714355H1.85709C1.22495 0.714355 0.714233 1.22507 0.714233 1.85721V28.1429C0.714233 28.7751 1.22495 29.2858 1.85709 29.2858H28.1428C28.7749 29.2858 29.2857 28.7751 29.2857 28.1429V1.85721C29.2857 1.22507 28.7749 0.714355 28.1428 0.714355ZM26.9999 27.0001H20.4249V18.2215H24.1392L24.6964 13.9108H20.4249V11.1572C20.4249 9.90721 20.7714 9.05721 22.5607 9.05721H24.8428V5.20007C24.4464 5.1465 23.0928 5.02864 21.5142 5.02864C18.2214 5.02864 15.9678 7.03936 15.9678 10.7286V13.9072H12.2464V18.2179H15.9714V27.0001H2.99995V3.00007H26.9999V27.0001Z" fill="#F1F1F1"/>
</svg>
