<svg width="32" height="32" viewBox="0 0 32 32" fill="none" xmlns="http://www.w3.org/2000/svg">
<path d="M15.9857 0.43921C7.15357 0.435639 0 7.58564 0 16.4106C0 23.3892 4.475 29.3214 10.7071 31.4999C11.5464 31.7106 11.4179 31.1142 11.4179 30.7071V27.9392C6.57143 28.5071 6.375 25.2999 6.05 24.7642C5.39286 23.6428 3.83929 23.3571 4.30357 22.8214C5.40714 22.2535 6.53214 22.9642 7.83571 24.8892C8.77857 26.2856 10.6179 26.0499 11.55 25.8178C11.7536 24.9785 12.1893 24.2285 12.7893 23.6464C7.76786 22.7464 5.675 19.6821 5.675 16.0392C5.675 14.2714 6.25714 12.6464 7.4 11.3356C6.67143 9.17492 7.46786 7.32492 7.575 7.04992C9.65 6.86421 11.8071 8.53564 11.975 8.66778C13.1536 8.34993 14.5 8.18207 16.0071 8.18207C17.5214 8.18207 18.8714 8.35707 20.0607 8.6785C20.4643 8.37135 22.4643 6.93564 24.3929 7.11064C24.4964 7.38564 25.275 9.19278 24.5893 11.3249C25.7464 12.6392 26.3357 14.2785 26.3357 16.0499C26.3357 19.6999 24.2286 22.7678 19.1929 23.6535C19.6242 24.0777 19.9667 24.5835 20.2003 25.1416C20.4339 25.6996 20.554 26.2985 20.5536 26.9035V30.9214C20.5821 31.2428 20.5536 31.5606 21.0893 31.5606C27.4143 29.4285 31.9679 23.4535 31.9679 16.4142C31.9679 7.58564 24.8107 0.43921 15.9857 0.43921Z" fill="#F1F1F1"/>
</svg>
